<?xml version="1.0" encoding="UTF-8"?>
<svg width="53px" height="52px" viewBox="0 0 53 52" version="1.1" xmlns="http://www.w3.org/2000/svg" xmlns:xlink="http://www.w3.org/1999/xlink">
    <!-- Generator: Sketch 51.2 (57519) - http://www.bohemiancoding.com/sketch -->
    <title>Next</title>
    <desc>Created with Sketch.</desc>
    <defs></defs>
    <g id="Events" stroke="none" stroke-width="1" fill="none" fill-rule="evenodd">
        <g id="Assets" transform="translate(-117.000000, -609.000000)">
            <g id="Elements-/-Richdata-/-Music-controls" transform="translate(44.000000, 537.000000)">
                <g id="Next" transform="translate(73.000000, 72.000000)">
                    <rect id="Rectangle-5" fill-opacity="0.4" fill="#D8D8D8" x="0" y="0" width="53" height="52" rx="26"></rect>
                    <path d="M16.6620877,24.0134289 L26.6723935,15.0041537 C27.4934135,14.2652357 28.7579932,14.3317925 29.4969113,15.1528125 C29.8274357,15.520062 30.010323,15.9966585 30.010323,16.490742 L30.010323,34.5092924 C30.010323,35.6138619 29.1148925,36.5092924 28.010323,36.5092924 C27.5162394,36.5092924 27.0396429,36.3264052 26.6723935,35.9958807 L16.6620877,26.9866055 C15.8410677,26.2476875 15.7745109,24.9831078 16.5134289,24.1620877 C16.5603413,24.1099628 16.6099628,24.0603413 16.6620877,24.0134289 Z" id="Path-2" fill="#8C8B8B" transform="translate(23.005161, 25.500009) rotate(-180.000000) translate(-23.005161, -25.500009) "></path>
                    <path d="M30.6517648,24.0134117 L40.6620705,15.0041365 C41.4830906,14.2652185 42.7476703,14.3317753 43.4865883,15.1527953 C43.8171128,15.5200448 44,15.9966413 44,16.4907248 L44,34.5092752 C44,35.6138447 43.1045695,36.5092752 42,36.5092752 C41.5059164,36.5092752 41.02932,36.326388 40.6620705,35.9958635 L30.6517648,26.9865883 C29.8307447,26.2476703 29.7641879,24.9830906 30.5031059,24.1620705 C30.5500184,24.1099456 30.5996398,24.0603241 30.6517648,24.0134117 Z" id="Path-2" fill="#8C8B8B" transform="translate(36.500000, 25.500000) rotate(-180.000000) translate(-36.500000, -25.500000) "></path>
                </g>
            </g>
        </g>
    </g>
</svg>